<mxfile host="app.diagrams.net" modified="2023-07-27T15:00:54.368Z" agent="Mozilla/5.0 (Windows NT 10.0; Win64; x64) AppleWebKit/537.36 (KHTML, like Gecko) Chrome/115.0.0.0 Safari/537.36 Edg/115.0.1901.183" version="21.6.5" etag="WQvdURbHDEa63ys-9htn" type="github">
  <diagram name="第 1 页" id="CDCMT0ahfo753EKsKTET">
    <mxGraphModel>
      <root>
        <mxCell id="0" />
        <mxCell id="1" parent="0" />
      </root>
    </mxGraphModel>
  </diagram>
</mxfile>
